<svg width="24" height="24" viewBox="0 0 24 24" fill="none" xmlns="http://www.w3.org/2000/svg">
<path d="M4.91176 7.58825L21.7353 7.58825C21.914 7.58825 22.0588 7.71993 22.0588 7.88237V10.5294H17.8529C15.8875 10.5294 14.2941 11.9779 14.2941 13.7647C14.2941 15.5515 15.8875 17 17.8529 17H22.0588V19.6471C22.0588 19.8095 21.914 19.9412 21.7353 19.9412L4.26471 19.9412C4.08603 19.9412 3.94118 19.8095 3.94118 19.6471L3.94118 7.43762C4.24476 7.53517 4.57144 7.58825 4.91176 7.58825ZM4.91176 5.82354C4.37572 5.82354 3.94118 5.4285 3.94118 4.94119C3.94118 4.45388 4.37572 4.05883 4.91176 4.05883H18.5C18.6787 4.05883 18.8235 4.19052 18.8235 4.35295V5.82354H4.91176ZM20.7647 5.82354V4.35295C20.7647 3.2159 19.7508 2.29413 18.5 2.29413H4.91176C3.30364 2.29413 2 3.47926 2 4.94119V19.9412C2 20.9158 2.8691 21.7059 3.94118 21.7059L22.0588 21.7059C23.1309 21.7059 24 20.9158 24 19.9412V7.58825C24 6.61363 23.1309 5.82354 22.0588 5.82354H20.7647ZM22.0588 12.2941V15.2353H17.8529C16.9595 15.2353 16.2353 14.5769 16.2353 13.7647C16.2353 12.9525 16.9595 12.2941 17.8529 12.2941H22.0588Z" fill="black"/>
</svg>
