<svg width="24" height="24" viewBox="0 0 24 24" fill="none" xmlns="http://www.w3.org/2000/svg">
<path fill-rule="evenodd" clip-rule="evenodd" d="M3.1 6C3.1 5.50294 3.50294 5.1 4 5.1H20C20.4971 5.1 20.9 5.50294 20.9 6C20.9 6.49705 20.4971 6.9 20 6.9H4C3.50294 6.9 3.1 6.49705 3.1 6Z" fill="black"/>
<path fill-rule="evenodd" clip-rule="evenodd" d="M3.09961 12C3.09961 11.5029 3.41653 11.1 3.80747 11.1H16.3917C16.7827 11.1 17.0996 11.5029 17.0996 12C17.0996 12.4971 16.7827 12.9 16.3917 12.9H3.80747C3.41653 12.9 3.09961 12.4971 3.09961 12Z" fill="black"/>
<path fill-rule="evenodd" clip-rule="evenodd" d="M3.1 18C3.1 17.5029 3.50294 17.1 4 17.1H20C20.4971 17.1 20.9 17.5029 20.9 18C20.9 18.4971 20.4971 18.9 20 18.9H4C3.50294 18.9 3.1 18.4971 3.1 18Z" fill="black"/>
</svg>
