<svg width="24" height="24" viewBox="0 0 24 24" fill="none" xmlns="http://www.w3.org/2000/svg">
<path d="M6.32896 19.9727L9.32896 19.4727C9.74 19.4041 10.1192 19.2088 10.4139 18.9141L19.0604 10.2676L19.2323 10.0782C19.9798 9.16168 19.9798 7.83842 19.2323 6.92193L19.0604 6.73247L17.2674 4.9395L17.078 4.76763C16.1615 4.02007 14.8382 4.02007 13.9217 4.76763L13.7323 4.9395L5.08579 13.586C4.8279 13.8439 4.64577 14.1665 4.55845 14.5186L4.5272 14.6709L4.0272 17.6709C3.92103 18.3081 4.12908 18.9574 4.58579 19.4141C5.04251 19.8708 5.69185 20.0789 6.32896 19.9727ZM13.9569 7.54302L15.1463 6.35357C15.3416 6.15835 15.6581 6.15836 15.8534 6.35357L17.6463 8.14654L17.7108 8.22466C17.8389 8.41872 17.8172 8.68271 17.6463 8.85357L16.4569 10.043L13.9569 7.54302ZM6.49986 15.0001L12.5428 8.95708L15.0428 11.4571L8.99986 17.5001L5.99986 18.0001L6.49986 15.0001Z" fill="black" fill-opacity="0.9"/>
</svg>
