<svg width="24" height="24" viewBox="0 0 24 24" fill="none" xmlns="http://www.w3.org/2000/svg">
<path d="M11.3857 1.21022C11.7469 0.929357 12.2531 0.929357 12.6143 1.21022L21.6143 8.21022C21.8578 8.39968 22 8.69167 22 9.00026V20.0003C21.9999 20.7958 21.6836 21.5588 21.1211 22.1214C20.5585 22.6839 19.7956 23.0003 19 23.0003H15V14.0003C15 12.8957 14.1046 12.0003 13 12.0003H11C9.89543 12.0003 9 12.8957 9 14.0003V23.0003H5C4.20442 23.0003 3.4415 22.6839 2.87891 22.1214C2.31637 21.5588 2.00008 20.7958 2 20.0003V9.00026C2 8.69167 2.14216 8.39968 2.38574 8.21022L11.3857 1.21022Z" fill="black"/>
</svg>
